<?xml version="1.0" encoding="UTF-8"?>
<svg width="62px" height="82px" viewBox="0 0 62 82" version="1.1" xmlns="http://www.w3.org/2000/svg" xmlns:xlink="http://www.w3.org/1999/xlink">
    <!-- Generator: Sketch 54.1 (76490) - https://sketchapp.com -->
    <title>sand timer</title>
    <desc>Created with Sketch.</desc>
    <g id="Dapps" stroke="none" stroke-width="1" fill="none" fill-rule="evenodd">
        <g id="7" transform="translate(-689.000000, -266.000000)">
            <g id="Group-2" transform="translate(636.000000, 266.000000)">
                <g id="sand-timer" transform="translate(53.000000, 0.000000)">
                    <g>
                        <path d="M10.3333333,5.125 L51.6666667,5.125 C51.2258888,14.0811155 50.3344629,19.952613 48.9923887,22.7394926 C44.5350193,31.995428 37.5774869,35.4573213 37.5774869,41 C37.5774869,46.2537454 44.9876216,50.5466451 48.9923887,59.1366023 C50.4113321,62.1801407 51.302758,68.0929399 51.6666667,76.875 L10.3333333,76.875 C10.6577478,67.6611876 11.572442,61.3611032 13.077416,57.974747 C16.4846366,50.3081276 24.4600754,45.8581148 24.4600754,41 C24.4600754,35.9308219 16.7871248,32.4352247 13.077416,24.3082069 C11.6100307,21.0935433 10.6953365,14.699141 10.3333333,5.125 Z" id="Rectangle-38" fill="#FFFFFF" fill-rule="nonzero"></path>
                        <path d="M12.4033034,22.21633 L25.2836173,38.9665195 C27.0666222,40.0755769 28.9720831,40.6301056 31,40.6301056 C33.0279169,40.6301056 35.0734103,40.0755769 37.1364801,38.9665195 L50.3629665,22.21633 L12.4033034,22.21633 Z" id="Path-3" fill="#05C0A5" fill-rule="nonzero"></path>
                        <path d="M32.4084765,62.8971178 L46.5,76.875 L15.5,76.875 L29.5915235,62.8971178 C30.3712416,62.1236878 31.6287584,62.1236878 32.4084765,62.8971178 Z" id="Triangle-2" fill="#05C0A5" fill-rule="nonzero"></path>
                        <ellipse id="Oval" fill="#05C0A5" fill-rule="nonzero" cx="31" cy="52.7875" rx="4.13333333" ry="4.1"></ellipse>
                        <path d="M59.1953187,76.3726654 L54.3883554,76.3726654 L54.3883554,67.7306676 C54.3883554,58.9873435 49.6045144,50.9505423 40.9179575,45.1001242 C39.8378153,44.3726183 39.1664425,42.8019232 39.1664425,40.9995859 C39.1664425,39.1972485 39.8378153,37.6271056 40.9185081,36.8990475 C49.6045144,31.0491817 54.3883554,23.0123804 54.3889059,14.2690563 L54.3889059,5.62705849 L59.1953187,5.62705849 C60.7442383,5.62705849 62,4.36752065 62,2.8133912 C62,1.25926175 60.7442383,0 59.1953187,0 L2.80495656,0 C1.25603697,0 0,1.25926175 0,2.81311511 C0,4.36724455 1.25603697,5.6267824 2.80495656,5.6267824 L7.61191989,5.6267824 L7.61191989,14.2693324 C7.61191989,23.0126565 12.3952104,31.0494577 21.0823177,36.8993236 C22.16246,37.6273817 22.8338328,39.1975246 22.8338328,40.999862 C22.8338328,42.8024754 22.16246,44.3728944 21.0817672,45.1009525 C12.3952104,50.9508183 7.61191989,58.9876196 7.61191989,67.7309437 L7.61191989,76.3729415 L2.80495656,76.3729415 C1.25603697,76.3729415 0,77.6327554 0,79.1866088 C0,80.7407382 1.25603697,82 2.80495656,82 L59.1950434,82 C60.743963,82 61.9997247,80.7410143 61.9997247,79.1866088 C62,77.6324794 60.7442383,76.3726654 59.1953187,76.3726654 Z M13.2221083,67.7306676 C13.2221083,58.5436615 20.1054001,52.5358702 24.2090598,49.772728 C26.8606934,47.9872324 28.4440212,44.7075195 28.4440212,40.999862 C28.4440212,37.2924805 26.8606934,34.0127676 24.2090598,32.2275481 C20.1054001,29.4644058 13.2221083,23.4566146 13.2221083,14.2696085 L13.2221083,5.62705849 L48.778167,5.62705849 L48.7776165,14.2696085 C48.7776165,23.4566146 41.8943246,29.4644058 37.7912155,32.2269959 C35.1390313,34.0130437 33.5557035,37.2927566 33.5557035,40.999862 C33.5557035,44.7077956 35.1390313,47.9869563 37.7906649,49.772728 C41.8943246,52.5358702 48.7776165,58.5436615 48.778167,67.7306676 L48.778167,76.3726654 L13.2221083,76.3726654 L13.2221083,67.7306676 Z" id="Shape" fill="#0B2840" fill-rule="nonzero"></path>
                    </g>
                </g>
            </g>
        </g>
    </g>
</svg>