<?xml version="1.0" encoding="UTF-8"?>
<svg width="32px" height="32px" viewBox="0 0 32 32" version="1.1" xmlns="http://www.w3.org/2000/svg" xmlns:xlink="http://www.w3.org/1999/xlink">
    <!-- Generator: Sketch 55 (78076) - https://sketchapp.com -->
    <title>Group 14</title>
    <desc>Created with Sketch.</desc>
    <g id="View-Wallet-Info" stroke="none" stroke-width="1" fill="none" fill-rule="evenodd">
        <g id="view-wallet-info-2" transform="translate(-770.000000, -353.000000)" fill="#0B2840" fill-rule="nonzero">
            <g id="Group-23" transform="translate(311.000000, 288.000000)">
                <g id="Group-10" transform="translate(9.000000, 55.000000)">
                    <g id="more" transform="translate(450.000000, 10.000000)">
                        <g id="Layer_1" transform="translate(5.000000, 5.000000)">
                            <path d="M11,22 C4.93416,22 0,17.06584 0,11 C0,4.93416 4.93416,0 11,0 C17.06584,0 22,4.93416 22,11 C22,17.06584 17.06584,22 11,22 Z M11,1.15789474 C5.57278195,1.15789474 1.15789474,5.57278195 1.15789474,11 C1.15789474,16.427218 5.57278195,20.8421053 11,20.8421053 C16.427218,20.8421053 20.8421053,16.427218 20.8421053,11 C20.8421053,5.57278195 16.427218,1.15789474 11,1.15789474 Z" id="Shape"></path>
                            <circle id="Oval" cx="11" cy="11" r="1.76"></circle>
                            <circle id="Oval" cx="5.72" cy="11" r="1.76"></circle>
                            <circle id="Oval" cx="16.28" cy="11" r="1.76"></circle>
                        </g>
                    </g>
                </g>
            </g>
        </g>
    </g>
</svg>