<?xml version="1.0" encoding="UTF-8"?>
<svg width="32px" height="32px" viewBox="0 0 32 32" version="1.1" xmlns="http://www.w3.org/2000/svg" xmlns:xlink="http://www.w3.org/1999/xlink">
    <!-- Generator: Sketch 55 (78076) - https://sketchapp.com -->
    <title>Group 14</title>
    <desc>Created with Sketch.</desc>
    <g id="View-Wallet-Info" stroke="none" stroke-width="1" fill="none" fill-rule="evenodd">
        <g id="view-wallet-info-2" transform="translate(-732.000000, -353.000000)" fill="#0B2840" stroke="#FFFFFF">
            <g id="Group-23" transform="translate(311.000000, 288.000000)">
                <g id="Group-10" transform="translate(9.000000, 55.000000)">
                    <g id="refresh-arrow" transform="translate(412.000000, 10.000000)">
                        <path d="M25.2963661,7.35828886 C25.1329995,7.29157353 25.0519426,7.3087175 24.9328728,7.43544566 L22.8966721,9.4562125 L22.5447499,9.12400051 C21.6614047,8.29012933 20.6532247,7.64479964 19.5173041,7.18629114 C18.3830396,6.72849447 17.211701,6.5 15.9999544,6.5 C14.7137283,6.5 13.4874905,6.75105688 12.3171739,7.25373757 C11.1418,7.75859663 10.131631,8.43472295 9.28326927,9.28314338 C8.43460651,10.1319082 7.7583943,11.1420588 7.25368625,12.3170371 C6.75099979,13.4874964 6.5,14.7135841 6.5,16 C6.5,17.2861661 6.75106256,18.5125508 7.25370985,19.6827749 C7.75871213,20.8582649 8.4348424,21.8684119 9.28325175,22.7167935 C10.1318357,23.5651765 11.1421022,24.2413789 12.3172462,24.7461827 C13.4875038,25.2489246 14.7137263,25.5 16,25.5 C17.4200347,25.5 18.7673216,25.2013105 20.0460593,24.6030266 C21.3037067,24.0149058 22.3759807,23.1904274 23.2619599,22.1326282 L21.5997538,20.4542515 C20.9300811,21.3040711 20.1123308,21.9667884 19.1500991,22.4391617 C18.1615155,22.9240289 17.1096457,23.1670011 16.0003648,23.1670011 C15.030135,23.1670011 14.1015315,22.9775238 13.2189723,22.5992142 C12.3408116,22.2230271 11.5777689,21.7120425 10.93328,21.0673946 C10.2887286,20.422586 9.77788017,19.6597923 9.40165129,18.7818601 C9.02333535,17.899025 8.8338958,16.9706339 8.8338958,16.0003649 C8.8338958,15.0303056 9.0234259,14.1015039 9.40164997,13.2187359 C9.77792872,12.3406384 10.2888864,11.5776389 10.9333608,10.9332999 C11.5780343,10.2886638 12.3408695,9.7777362 13.2188952,9.40141169 C14.1014795,9.02315442 15.0302669,8.83363738 16.0003648,8.83363738 C17.8712369,8.83363738 19.5073363,9.47590017 20.8844228,10.7506486 L21.2658496,11.1037298 L20.8982556,11.4711905 L19.0951651,13.2735332 C18.9752914,13.38951 18.9596746,13.4664936 19.0250902,13.616851 C19.0952621,13.7817071 19.1716923,13.8335006 19.3336678,13.8335006 L25.1668795,13.8335006 C25.2587594,13.8335006 25.3272298,13.8045953 25.3991151,13.7327286 C25.4710704,13.6607123 25.5,13.5921438 25.5,13.500228 L25.5,7.6668982 C25.4999591,7.50324275 25.4503025,7.42653117 25.2963661,7.35828886 Z M21.6217108,20.4156244 C21.6218218,20.4156168 21.621933,20.4156091 21.6220444,20.4156015 C21.6219123,20.415618 21.6217909,20.4156298 21.62168,20.4156369 Z" id="Path"></path>
                    </g>
                </g>
            </g>
        </g>
    </g>
</svg>