<?xml version="1.0" encoding="UTF-8"?>
<svg width="100px" height="100px" viewBox="0 0 100 100" version="1.1" xmlns="http://www.w3.org/2000/svg" xmlns:xlink="http://www.w3.org/1999/xlink">
    <!-- Generator: Sketch 54.1 (76490) - https://sketchapp.com -->
    <title>Artboard</title>
    <desc>Created with Sketch.</desc>
    <g id="Artboard" stroke="none" stroke-width="1" fill="none" fill-rule="evenodd">
        <g id="button-metamask" transform="translate(17.000000, 19.000000)">
            <polygon id="Path-6" fill="#FFFFFF" fill-rule="nonzero" points="1.23741617 40.5658308 23.03599 35.1467513 32.7072269 45.8667759 42.4547019 35.1467513 63.3871846 40.5658308 63.3871846 35.1467513 57.169323 18.0460867 55.8684692 1.3169966 52.6719678 3.56224008 45.5749653 9.8618342 42.4547019 14.2905066 37.2114505 15.5377878 30.2463192 15.5377878 23.9494724 15.5377878 19.3772528 8.9847538 13.3441482 2.67554405 11.3097612 2.67554405 9.4821096 7.7532697 7.13109448 21.7439732 4.22306116 32.7689498"></polygon>
            <path d="M6.79070993,25.5364815 C6.72447079,25.9710958 6.60636103,26.3962005 6.43890937,26.8026941 L1.06361072,39.851385 C0.97236515,40.0728862 1.05104686,40.3279821 1.25120891,40.4596016 L32.9827895,61.3251739 C33.1497948,61.4349907 33.3661556,61.4347964 33.5329634,61.3246799 L65.1526322,40.4512695 C65.3509111,40.3203776 65.4296996,40.0680308 65.3411196,39.847575 L60.0779354,26.7486895 C59.9310707,26.3831762 59.8238983,26.0029428 59.7582629,25.6145342 L55.5627603,0.78694518 C55.5442826,0.67760034 55.4899782,0.57750093 55.4083898,0.50239394 C55.2052248,0.31536833 54.8889128,0.32845192 54.7018871,0.53161695 L43.059969,13.1781773 C42.0185545,14.309461 40.5511211,14.9531392 39.0134778,14.9531392 L27.4480722,14.9531392 C25.9364187,14.9531392 24.4914023,14.3309666 23.4525721,13.2328191 L11.4209634,0.51420396 C11.3444522,0.43332392 11.2431351,0.3802939 11.1330707,0.3635191 C10.8600807,0.32191296 10.6050502,0.50948663 10.563444,0.78247663 L6.79070993,25.5364815 Z" id="Path-3" stroke="#003945" stroke-width="5"></path>
            <polygon id="Path-2" fill="#05C0A5" fill-rule="nonzero" points="6.83951755 41.3463851 33.3094341 58.746597 58.9489561 41.7109328 43.4551469 34.7999181 34.8962294 45.1304501 24.2048934 35.4993956"></polygon>
            <path d="M0.79915854,40.2282643 L23.2021912,34.8651763 C23.5719587,34.7766572 23.9599356,34.9054903 24.2033065,35.1976106 L32.7407664,45.4451978 C33.0942768,45.8695195 33.7248342,45.9269233 34.1491558,45.5734129 C34.2168012,45.5170563 34.2767075,45.4520129 34.3273211,45.3799697 L41.4201105,35.2841163 C41.6584927,34.9448039 42.0815591,34.787821 42.4835778,34.8895066 L63.5906189,40.2282643" id="Path-4" stroke="#003945" stroke-width="5"></path>
        </g>
    </g>
</svg>