<?xml version="1.0" encoding="UTF-8"?>
<svg width="100px" height="100px" viewBox="0 0 100 100" version="1.1" xmlns="http://www.w3.org/2000/svg" xmlns:xlink="http://www.w3.org/1999/xlink">
    <!-- Generator: Sketch 54.1 (76490) - https://sketchapp.com -->
    <title>Artboard</title>
    <desc>Created with Sketch.</desc>
    <g id="Artboard" stroke="none" stroke-width="1" fill="none" fill-rule="evenodd">
        <g id="button-hardware" transform="translate(12.000000, 12.000000)">
            <polygon id="Path-3" fill="#FFFFFF" fill-rule="nonzero" points="36.9027011 15.9292352 60.3769254 39.386189 26.6699225 74.0121271 21.342689 72.657831 6.37203322 58.0692853 4.41183007 50.3184233 6.37203322 45.8252117"></polygon>
            <polygon id="Path-4" fill="#FFFFFF" fill-rule="nonzero" points="41.9025144 18.0369573 59.1082623 36.4012688 73.442068 20.6181793 54.9870863 3.13322471"></polygon>
            <path d="M76.1523064,19.1944775 L57.2581644,0.638098544 C56.3931385,-0.211708832 55.0070485,-0.212747897 54.1405382,0.635278222 L39.9696718,14.5023533 L38.3782737,12.9110983 C37.4972151,12.0302674 36.0811379,12.0500096 35.220714,12.9197077 L4.08230691,44.3982057 C-0.26019117,48.7403132 -0.2747394,55.7728589 4.07072771,60.1302555 L16.3136567,72.714975 C16.3207824,72.7223969 16.3280565,72.7296703 16.3353306,72.7367953 C20.6864389,77.0875122 27.7288211,77.0879575 32.0802263,72.7367953 L63.5703146,41.2493911 C64.4399424,40.3798414 64.4399424,38.9702745 63.5703146,38.1007248 L61.9958399,36.5263917 L76.1665577,22.3570969 C77.0413814,21.4827973 77.034998,20.0610584 76.1523064,19.1944775 Z M28.9312769,69.5881291 C26.3180882,72.2010827 22.1002893,72.1933639 19.4940778,69.597926 L7.25307871,57.0151362 C7.24595304,57.0077143 7.23867893,57.0004409 7.23140481,56.9931674 C4.63202216,54.394167 4.60574628,50.1722943 7.23986654,47.5382625 L36.8124091,17.6425586 L58.8468904,39.675058 L28.9312769,69.5881291 Z M58.8468904,33.3777255 C56.5706863,31.1017261 43.3588155,17.8910437 43.1189182,17.651168 L55.6951204,5.34462124 L71.4288822,20.7970139 L58.8468904,33.3777255 Z" id="Shape" stroke="#003945" fill="#003945" fill-rule="nonzero"></path>
            <path d="M19.9568796,37.4219479 L45.3975581,37.4219479 C45.9498429,37.4219479 46.3975581,37.8696632 46.3975581,38.4219479 L46.3975581,52.1276729 C46.3975581,52.6799576 45.9498429,53.1276729 45.3975581,53.1276729 L19.9568796,53.1276729 C17.7477406,53.1276729 15.9568796,51.3368119 15.9568796,49.1276729 L15.9568796,41.4219479 C15.9568796,39.2128089 17.7477406,37.4219479 19.9568796,37.4219479 Z" id="Rectangle" stroke="#003945" stroke-width="3.8" fill="#05C0A5" fill-rule="nonzero" transform="translate(31.177219, 45.274810) rotate(-45.000000) translate(-31.177219, -45.274810) "></path>
            <g id="Group" stroke-linecap="round" transform="translate(25.601132, 39.652174)" stroke="#003945" stroke-width="3.8">
                <path d="M0,11.0351267 L1.12717702,9.82717362" id="Line"></path>
                <path d="M5.7826087,5.25251799 L10.2913168,0.42070574" id="Line"></path>
            </g>
            <path d="M57.9359167,13.1000218 C56.991315,12.1550652 55.459402,12.1550652 54.5143163,13.1000218 L51.0925546,16.5217391 C50.147469,17.4666958 50.147469,18.9986611 51.0925546,19.9434564 C52.0373177,20.8884131 53.5692307,20.8884131 54.514155,19.9434564 L57.9359167,16.5217391 C58.880841,15.5767825 58.880841,14.0448171 57.9359167,13.1000218 Z" id="Shape" fill="#003945" fill-rule="nonzero"></path>
            <path d="M63.7185116,18.8826305 C62.7737301,17.9376739 61.2417871,17.9376739 60.2968444,18.8826305 L56.8751772,22.3043478 C55.9300731,23.2493045 55.9300731,24.7811085 56.8751772,25.7260651 C57.8199586,26.6710218 59.3519016,26.6710218 60.2968444,25.7260651 L63.7185116,22.3043478 C64.6634543,21.3595525 64.6634543,19.8275871 63.7185116,18.8826305 Z" id="Shape" fill="#003945" fill-rule="nonzero"></path>
        </g>
    </g>
</svg>